<svg width="14" height="14" viewBox="0 0 14 14" fill="none" xmlns="http://www.w3.org/2000/svg">
<path fill-rule="evenodd" clip-rule="evenodd" d="M11.4999 0.500189C12.6045 0.500189 13.4999 1.39562 13.4999 2.50019L13.4999 5.37887C13.4999 5.9093 13.2892 6.41801 12.9141 6.79308L6.52669 13.1805C5.91381 13.7934 4.93394 13.9711 4.16166 13.4655C2.71706 12.5197 1.48034 11.283 0.534565 9.83842C0.0289557 9.06613 0.206703 8.08627 0.819586 7.47338L7.20699 1.08597C7.58207 0.710902 8.09078 0.500189 8.62121 0.500189H11.4999ZM10.7499 4.00019C10.3357 4.00019 9.99989 3.6644 9.99989 3.25019C9.99989 2.83597 10.3357 2.50019 10.7499 2.50019C11.1641 2.50019 11.4999 2.83598 11.4999 3.25019C11.4999 3.6644 11.1641 4.00019 10.7499 4.00019Z" fill="#8E8E8E"/>
</svg>
